<svg viewBox="0 0 24 24" width="100%" height="100%" pointer-events="none"
    xmlns="http://www.w3.org/2000/svg">
    <g fill="currentColor">
        <path d="M2.5 12a9.5 9.5 0 0 1 9.976-9.488.75.75 0 1 0 .079-1.498A10.64 10.64 0 0 0 12 1C5.925 1 1 5.925 1 12s4.925 11 11 11a11 11 0 0 0 9.899-6.197V16.8c.082-.168.158-.336.23-.506a.75.75 0 0 0-1.382-.583A9.5 9.5 0 0 1 12 21.5 9.5 9.5 0 0 1 2.5 12zM15.793 1.71a.75.75 0 1 0-.543 1.397c.296.116.585.246.866.39a.75.75 0 0 0 .686-1.333 10.58 10.58 0 0 0-1.009-.455zm3.682 2.391a.75.75 0 1 0-1.05 1.071c.228.224.445.458.65.702a.75.75 0 0 0 1.148-.966c-.236-.28-.486-.55-.748-.807zm2.492 3.595a.75.75 0 1 0-1.371.609c.13.292.245.59.347.893a.75.75 0 0 0 1.422-.476c-.116-.349-.25-.69-.398-1.026zm.975 4.274a.75.75 0 0 0-1.5.037c.009.317 0 .634-.024.95a.75.75 0 0 0 1.495.119c.03-.37.039-.739.03-1.107z"/>
        <path d="M17.78 8.22a.75.75 0 0 1 0 1.06l-7.5 7.5a.75.75 0 0 1-1.06 0l-3-3a.75.75 0 1 1 1.06-1.06l2.47 2.47 6.97-6.97a.75.75 0 0 1 1.06 0z"/>
    </g>
</svg>