<svg viewBox="0 0 16 16" width="100%" height="100%" pointer-events="none"
    xmlns="http://www.w3.org/2000/svg">
    <g fill="currentColor">
        <path d="M13 12v-1h1a1 1 0 0 0 1-1V2a1 1 0 0 0-1-1H6a1 1 0 0 0-1 1v1H4V2a2 2 0 0 1 2-2h8a2 2 0 0 1 2 2v8a2 2 0 0 1-2 2h-1zm0 0v-1h1a1 1 0 0 0 1-1V2a1 1 0 0 0-1-1H6a1 1 0 0 0-1 1v1H4V2a2 2 0 0 1 2-2h8a2 2 0 0 1 2 2v8a2 2 0 0 1-2 2h-1z"/>
        <path d="M2 5a1 1 0 0 0-1 1v8a1 1 0 0 0 1 1h8a1 1 0 0 0 1-1V6a1 1 0 0 0-1-1H2zm0-1h8a2 2 0 0 1 2 2v8a2 2 0 0 1-2 2H2a2 2 0 0 1-2-2V6a2 2 0 0 1 2-2z"/>
    </g>
</svg>