<svg version="1.1" viewBox="-265 388.9 64 64"
    xmlns="http://www.w3.org/2000/svg">
    <g fill="#fff">
        <path d="M-223.6,404.9h-7.8c-0.7,0-1.2,0.8-0.9,1.4l7.3,14.6l-7.3,14.6c-0.3,0.7,0.2,1.4,0.9,1.4h7.8c0.4,0,0.7-0.2,0.9-0.6 l7.7-15.4l-7.7-15.4C-222.9,405.1-223.2,404.9-223.6,404.9z"/>
        <path d="M-239.6,404.9h-7.8c-0.7,0-1.2,0.8-0.9,1.4l7.3,14.6l-7.3,14.6c-0.3,0.7,0.2,1.4,0.9,1.4h7.8c0.4,0,0.7-0.2,0.9-0.6 l7.7-15.4l-7.7-15.4C-238.9,405.1-239.2,404.9-239.6,404.9z"/>
    </g>
</svg>