<svg xmlns="http://www.w3.org/2000/svg" viewBox="0 0 800 800">
	<path d="M421.6,551.7h210.9c38.6,0,68.6-29.6,68.6-65V207.1c0-36.2-30-65.4-68.6-65.4h-463c-38.6,0-68.6,29.6-68.6,65.4v279.2
	c0,35.8,30,65.4,68.6,65.4h72.6v131.7L421.6,551.7z M267.8,716.7c-18.9,13.8-45.8,10.1-60-8.3l0,0c-5.5-7.1-8.5-15.7-8.6-24.6v-90.4
	h-29.7C108.4,593.8,58.5,546,58,486.7c0,0,0,0,0,0V207.1c0.2-59.4,50-107.3,111-107.1c0.1,0,0.3,0,0.4,0h463
	c61.7,0,111.5,47.9,111.5,107.1v279.2c-0.2,59.4-50,107.3-111,107.1c-0.1,0-0.3,0-0.4,0H435.7L267.8,716.7z"/>
</svg>
