<svg xmlns="http://www.w3.org/2000/svg" viewBox="0 0 24 24">
    <path fill="currentColor"
        d="M8.7,22.6c-4.3,0-7.8-3.5-7.8-7.9c0-2,0.8-4,2.2-5.4l6.3-6.2c2.2-2.2,5.7-2.2,7.9,0c2.2,2.2,2.2,5.7,0,7.9L11,17.2c-1.3,1.3-3.4,1.3-4.7,0c-0.6-0.6-1-1.5-1-2.4c0-0.9,0.3-1.7,1-2.4l6.3-6.3c0.4-0.4,1.1-0.4,1.6,0c0,0,0,0,0,0c0.4,0.4,0.4,1.1,0,1.6L7.9,14c-0.4,0.4-0.4,1.1,0,1.6C8.3,16,9,16,9.4,15.6l6.3-6.3C17,8,17,5.9,15.7,4.6c-1.3-1.3-3.4-1.3-4.7,0l-6.3,6.3c-2.1,2.2-2.1,5.6,0,7.8c2.2,2.2,5.7,2.2,7.9,0l8.7-8.6c0.4-0.4,1.1-0.4,1.6,0c0,0,0,0,0,0c0.4,0.4,0.4,1.1,0,1.6l-8.7,8.6C12.7,21.7,10.7,22.6,8.7,22.6z" />
</svg>