<svg viewBox="0 0 1024 1024" width="100%" height="100%" pointer-events="none"
    xmlns="http://www.w3.org/2000/svg">
    <path fill="currentColor" d="M320 256a64 64 0 0 0-64 64v384a64 64 0 0 0 64 64h384a64 64 0 0 0 64-64V320a64 64 0 0 0-64-64H320zm0-64h384a128 128 0 0 1 128 128v384a128 128 0 0 1-128 128H320a128 128 0 0 1-128-128V320a128 128 0 0 1 128-128z"/>
    <path fill="currentColor" d="M512 64a32 32 0 0 1 32 32v128h-64V96a32 32 0 0 1 32-32zm160 0a32 32 0 0 1 32 32v128h-64V96a32 32 0 0 1 32-32zm-320 0a32 32 0 0 1 32 32v128h-64V96a32 32 0 0 1 32-32zm160 896a32 32 0 0 1-32-32V800h64v128a32 32 0 0 1-32 32zm160 0a32 32 0 0 1-32-32V800h64v128a32 32 0 0 1-32 32zm-320 0a32 32 0 0 1-32-32V800h64v128a32 32 0 0 1-32 32zM64 512a32 32 0 0 1 32-32h128v64H96a32 32 0 0 1-32-32zm0-160a32 32 0 0 1 32-32h128v64H96a32 32 0 0 1-32-32zm0 320a32 32 0 0 1 32-32h128v64H96a32 32 0 0 1-32-32zm896-160a32 32 0 0 1-32 32H800v-64h128a32 32 0 0 1 32 32zm0-160a32 32 0 0 1-32 32H800v-64h128a32 32 0 0 1 32 32zm0 320a32 32 0 0 1-32 32H800v-64h128a32 32 0 0 1 32 32z"/>
</svg>