<svg viewBox="0 0 1000 1000" width="100%" height="100%" pointer-events="none" xmlns="http://www.w3.org/2000/svg"><path fill="currentColor" d="M465 211c-37 6-72 19-104 38-45 27-83 67-108 113-25 47-36 100-34 153 3 52 20 104 49 148s70 79 118 102 101 32 154 27c53-6 103-25 146-56 26-20 49-44 67-71-45 7-91 4-136-10-65-21-121-64-157-122-37-57-53-126-44-194 6-46 23-90 49-128m50-57h10c8 0 16 3 21 10 9 11 8 27-3 36-41 38-67 90-74 145-7 56 5 112 35 159 31 48 76 83 130 100 53 17 110 15 162-6 7-3 15-3 22 1 13 6 18 21 13 34-24 58-63 108-114 145-50 37-110 60-172 66s-125-5-182-31c-56-27-105-69-139-121-35-52-55-113-58-175-3-63 11-125 40-180 30-55 74-102 128-134 53-32 115-49 177-49z"/></svg>