<svg viewBox="0 0 512 512" width="100%" height="100%" pointer-events="none"
    xmlns="http://www.w3.org/2000/svg">
    <g fill="currentColor" fill-rule="evenodd" clip-rule="evenodd">
        <path d="M0 256c0 141.391 114.594 256 256 256 141.375 0 256-114.609 256-256S397.375 0 256 0C114.594 0 0 114.609 0 256zm472 0c0 119.297-96.719 216-216 216-119.312 0-216-96.703-216-216S136.688 40 256 40c119.281 0 216 96.703 216 216z"/>
        <path d="m144 226 112 112 112-112-32-32-80 80-80-80z"/>
    </g>
</svg>