<svg viewBox="0 0 28 25" width="100%" height="100%" pointer-events="none" xmlns="http://www.w3.org/2000/svg">
    <g fill="currentColor">
        <path
            d="M13.889 1.78A.23.23 0 0 1 14 1.752q.058 0 .11.028.06.037.094.1l11.998 20.414a.31.31 0 0 1 .003.32.3.3 0 0 1-.094.105.2.2 0 0 1-.116.03H2.005a.2.2 0 0 1-.116-.03.3.3 0 0 1-.094-.105.31.31 0 0 1 .003-.32L13.794 1.88a.26.26 0 0 1 .095-.1m1.826-.787a1.977 1.977 0 0 0-3.43 0L.289 21.407c-.8 1.36.16 3.091 1.715 3.091h23.993c1.556 0 2.516-1.732 1.715-3.092z" />
        <path
            d="M12.25 19.25a1.75 1.75 0 1 1 3.501 0 1.75 1.75 0 0 1-3.5 0m.172-10.508a1.584 1.584 0 1 1 3.15 0l-.613 6.136a.966.966 0 0 1-1.924 0z" />
    </g>
</svg>