<svg viewBox="0 0 260 260" width="100%" height="100%" pointer-events="none"
    xmlns="http://www.w3.org/2000/svg">
    <path fill="currentColor" d="M222.4 161.1A100.4 100.4 0 0 0 228 128a99 99 0 0 0-5.7-33.2v-.4a100 100 0 0 0-188.4 0 4.3 4.3 0 0 0-.1.5 99.2 99.2 0 0 0 0 66.3c0 .2.1.3.1.4a100 100 0 0 0 188.4.1 1.4 1.4 0 0 1 .1-.6ZM128 216c-14.4-13.5-25.1-31.7-30.9-52h61.8c-5.8 20.3-16.5 38.5-30.9 52Zm-33-60a132.2 132.2 0 0 1 0-56h66a132.2 132.2 0 0 1 0 56Zm-59-28a89.2 89.2 0 0 1 4.4-28h46.4a141.4 141.4 0 0 0 0 56H40.4a89.2 89.2 0 0 1-4.4-28Zm92-88c14.4 13.5 25.1 31.7 30.9 52H97.1c5.8-20.3 16.5-38.5 30.9-52Zm41.2 60h46.4a91.3 91.3 0 0 1 0 56h-46.4a141.4 141.4 0 0 0 0-56Zm43.5-8h-45.3a123.1 123.1 0 0 0-31.6-55.7A92.3 92.3 0 0 1 212.7 92Zm-92.4-55.7A122.4 122.4 0 0 0 88.6 92H43.3a92.3 92.3 0 0 1 77-55.7ZM43.3 164h45.3c5.7 21.5 16.6 40.8 31.7 55.7a92.3 92.3 0 0 1-77-55.7Zm92.5 55.7c15-14.9 25.9-34.2 31.6-55.7h45.3a92.3 92.3 0 0 1-76.9 55.7Z"/>
</svg>