<svg viewBox="0 0 32 32" width="100%" height="100%" pointer-events="none"
    xmlns="http://www.w3.org/2000/svg">
    <path d="m23.706 15.312-5.918-6.69a1.007 1.007 0 0 0-1.422 1.422l5.3 5.992-5.3 5.992a1.007 1.007 0 0 0 1.422 1.422l5.918-6.69c.2-.2.296-.462.292-.724a1.004 1.004 0 0 0-.292-.724zm-14.514 8.14c.392.392 1.03.392 1.422 0l5.918-6.69c.2-.2.296-.462.292-.724a.993.993 0 0 0-.292-.724l-5.916-6.692a1.007 1.007 0 0 0-1.422 1.422l5.3 5.992-5.3 5.992a1.007 1.007 0 0 0-.002 1.424z" fill="currentColor"/>
</svg>