<svg viewBox="0 0 56 56" width="100%" height="100%" pointer-events="none"
    xmlns="http://www.w3.org/2000/svg">
    <path d="M13.785 49.574h28.453c4.899 0 7.336-2.437 7.336-7.265V13.69c0-4.828-2.437-7.265-7.336-7.265H13.785c-4.875 0-7.36 2.414-7.36 7.265v28.62c0 4.851 2.485 7.265 7.36 7.265Zm.07-3.773c-2.343 0-3.656-1.242-3.656-3.68V13.88c0-2.438 1.313-3.68 3.656-3.68h28.313c2.32 0 3.633 1.242 3.633 3.68v28.24c0 2.438-1.313 3.68-3.633 3.68Zm21.516-23.649c-1.031 0-1.71.703-1.71 1.828v4.055l.35 3.633-3.374-3.586-8.625-8.648a1.835 1.835 0 0 0-1.336-.54c-1.032 0-1.735.704-1.735 1.758 0 .47.235.914.563 1.242l8.648 8.649 3.656 3.398-3.468-.375h-4.266c-1.125 0-1.851.68-1.851 1.735 0 1.031.703 1.71 1.804 1.71h11.11c1.195 0 1.968-.562 1.968-1.945V24.027c0-1.101-.703-1.875-1.734-1.875Z" fill="currentColor"/>
</svg>