<svg viewBox="0 0 1000 1000" width="100%" height="100%" pointer-events="none" xmlns="http://www.w3.org/2000/svg"><path fill="currentColor" d="M501 146c15 0 28 12 28 27v37c0 15-13 27-28 27s-27-12-27-27v-37c0-15 12-27 27-27M248 249c11-11 28-11 39 0l25 26c11 10 11 28 0 38-10 11-28 11-38 0l-26-25c-11-11-11-28 0-39m506 0c11 11 11 28 0 39l-25 25c-11 11-28 11-39 0s-11-28 0-38l26-26c10-11 28-11 38 0M379 379c32-32 76-50 122-50s90 18 123 50c32 33 51 77 51 123s-19 90-51 123c-33 32-77 51-123 51s-90-19-122-51c-33-33-51-77-51-123s18-90 51-123m122 4c-31 0-61 13-84 35-22 22-34 53-34 84s12 62 34 84c23 22 53 35 84 35s62-13 84-35 35-52 35-84-13-62-35-84-52-35-84-35M145 502c0-15 12-27 27-27h37c15 0 27 12 27 27s-12 27-27 27h-37c-15 0-27-12-27-27m621 0c0-15 12-27 27-27h37c15 0 27 12 27 27s-12 27-27 27h-37c-15 0-27-12-27-27M312 691c11 11 11 28 0 39l-25 25c-11 11-28 11-39 0-11-10-11-28 0-39l26-25c10-11 28-11 38 0m378 0c11-11 28-11 39 0l25 25c11 11 11 29 0 39s-28 11-38 0l-26-25c-11-11-11-28 0-39m-189 76c15 0 28 12 28 27v37c0 15-13 27-28 27s-27-12-27-27v-37c0-15 12-27 27-27"/></svg>