<svg xmlns="http://www.w3.org/2000/svg" viewBox="0 0 800 800">
	<path fill="currentColor" d="M236.1,252.3c-12.9,2.3-23.4,12.8-23.4,25.8c0,12.9,10.5,23.4,23.4,23.4h327.8c12.9,0,23.4-10.5,23.4-23.4
	c0-12.9-10.5-23.4-23.4-25.8H236.1z M212.7,425.6c0-13.1,10.3-23.4,23.4-23.4h140.5c12.9,0,23.4,10.5,23.4,23.4
	c0,12.9-10.5,23.4-23.4,23.4H236.1C223.2,449,212.7,438.5,212.7,425.6z M236.1,552.7c-12.9,0-23.4,10.5-23.4,23.4
	c0,12.9,10.5,23.4,23.4,23.4h234.2c12.9,0,23.4-10.5,23.4-23.4c0-12.9-10.5-23.4-23.4-23.4H236.1z M329.8,1.7
	c-30.4,0-56.2,21.7-66,48.8h-89.5c-38.9,0-70.3,29.4-70.3,68.3v562c0,38.9,31.4,70.3,70.3,70.3h451.5c38.9,0,73.3-37.4,73.3-76.3
	v-548c0-38.9-34.4-76.3-73.3-76.3h-89.5c-9.4-27.2-35.6-48.8-66-48.8H329.8z M470.3,52.5c12.9,0,23.4,10.5,23.4,23.4
	s-10.5,23.4-23.4,23.4H329.8c-12.9,0-23.4-10.5-23.4-23.4s10.5-23.4,23.4-23.4H470.3z M178.3,103.3h85.5c9.4,27.2,35.6,46.8,66,46.8
	h140.5c30.4,0,56.2-19.7,66-46.8h88.5c13.1,0,27.4,11.3,27.4,24.4v543c0,12.9-15.5,30.4-28.4,30.4H174.3
	c-12.9,0-23.4-13.5-23.4-26.4v-548C150.8,113.6,165.1,103.3,178.3,103.3z" />
</svg>