<svg xmlns="http://www.w3.org/2000/svg" viewBox="0 0 800 800">
    <path d="M101,182.1c0-43.7,44-76.9,95-97C250,63.2,322.5,51,401,51s151,12.7,205,34.1c51,20.1,95,52.9,95,97v436.9
	c0,43.7-44,76.9-95,97C552,737.8,479.5,750,401,750s-151-12.7-205-34.1c-51-20.1-95-52.9-95-97V182.1z M151,182.1
	c0,16.2,18,38.4,66,57.2c45.5,18.3,111,30.1,184,30.1s138.5-11.8,184-30.1c48-18.8,66-41.1,66-57.2s-18-38.4-66-57.2
	c-58.3-21-120.9-31.2-184-30.1c-73,0-138.5,11.8-184,30.1C169,143.6,151,165.9,151,182.1z M651,256.3c-13.5,8.7-29,16.6-45,22.7
	c-54,21.8-126.5,34.1-205,34.1S250,300.5,196,279c-15.9-6.2-31-13.8-45-22.7v362.6c0,16.2,18,38.4,66,57.2
	c45.5,18.3,111,30.1,184,30.1s138.5-11.8,184-30.1c48-18.8,66-41.1,66-57.2V256.3z"/>
</svg>
