<svg viewBox="0 0 1024 1024" width="100%" height="100%" pointer-events="none"
    xmlns="http://www.w3.org/2000/svg">
    <path d="M667.52 354.88c5.766-1.297 12.388-2.04 19.184-2.04 32.114 0 60.351 16.598 76.6 41.684l.216.356c5.911 7.059 14.727 11.516 24.584 11.516 17.673 0 32-14.327 32-32a31.85 31.85 0 0 0-5.773-18.338l.068.103c-28.158-41.402-75.05-68.239-128.209-68.239a154.924 154.924 0 0 0-37.011 4.46l1.06-.22c-33.164 9.314-58.668 35.135-67.368 67.81l-.152.67c-2.396 8.295-3.774 17.824-3.774 27.674 0 27.93 11.078 53.273 29.081 71.874l-.027-.028 136.64 136.32c6.74 6.769 10.907 16.106 10.907 26.415 0 .501-.01 1-.029 1.496l.002-.071a35.495 35.495 0 0 1-13.056 25.869l-.064.051c-15.171 12.901-34.988 20.747-56.638 20.747-31.344 0-58.846-16.447-74.348-41.181l-.214-.367c-5.9-7.807-15.167-12.8-25.6-12.8-17.673 0-32 14.327-32 32 0 7.24 2.404 13.919 6.458 19.28l-.058-.08c28.739 40.643 75.171 67.125 127.841 68.158l.159.002c36.851-.441 70.409-14.181 96.179-36.633l-.179.153c20.839-17.592 34.395-43.242 35.831-72.083l.009-.237c.077-1.471.122-3.193.122-4.925 0-27.728-11.304-52.817-29.554-70.908l-.007-.007-135.68-135.36c-6.773-6.871-10.956-16.311-10.956-26.728 0-3.584.495-7.052 1.421-10.34l-.064.268c2.452-11.707 11.04-20.934 22.174-24.262l.226-.058zM512 0C229.23 0 0 229.23 0 512s229.23 512 512 512 512-229.23 512-512S794.77 0 512 0zm0 960C264.576 960 64 759.424 64 512S264.576 64 512 64s448 200.576 448 448-200.576 448-448 448zM336 288c-96.96 0-176 100.48-176 224s79.04 224 176 224 176-100.48 176-224-79.04-224-176-224zm0 384c-60.8 0-112-73.28-112-160s51.2-160 112-160 112 73.28 112 160-51.2 160-112 160z" fill="currentColor"/>
</svg>