<svg pointer-events="none"
	xmlns="http://www.w3.org/2000/svg" viewBox="0 0 512 512">
	<path d="M167.4,373.6c-8.8,11.1-25,13-36.1,4.2c-11.1-8.8-13-25-4.2-36.1c1.2-1.6,2.6-3,4.2-4.2l83.8-83.8l-83.8-83.8
	c-9.9-10-9.9-26.1,0-36.1c10-9.9,26.1-9.9,36.1,0l102.2,101.6c10.1,9.9,10.3,26.2,0.4,36.3c-0.1,0.1-0.2,0.2-0.4,0.4L167.4,373.6z
	 M353.4,381c-14,0-25.4-11.1-25.7-25.1V151.5c2.2-14,15.3-23.6,29.4-21.4c11.1,1.7,19.7,10.4,21.4,21.4v204.4
	C378.2,369.6,367.1,380.6,353.4,381z" fill="currentColor"/>
</svg>
