<svg viewBox="0 0 56 56" width="100%" height="100%" pointer-events="none"
    xmlns="http://www.w3.org/2000/svg">
    <path d="M13.785 49.574h28.453c4.899 0 7.336-2.437 7.336-7.265V13.69c0-4.828-2.437-7.265-7.336-7.265H13.785c-4.875 0-7.36 2.414-7.36 7.265v28.62c0 4.851 2.485 7.265 7.36 7.265Zm.07-3.773c-2.343 0-3.656-1.242-3.656-3.68V13.88c0-2.438 1.313-3.68 3.656-3.68h28.313c2.32 0 3.633 1.242 3.633 3.68v28.24c0 2.438-1.313 3.68-3.633 3.68Zm14.157-29.907c-.516 0-.891.211-1.36.68l-7.969 7.922c-.304.305-.445.727-.445 1.219 0 .937.727 1.687 1.688 1.687.515 0 .937-.21 1.242-.515l2.906-2.953 2.367-2.813-.187 4.945v12.211c0 1.032.75 1.758 1.758 1.758s1.758-.726 1.758-1.758v-12.21l-.188-4.97 2.39 2.837 2.883 2.953c.305.328.727.515 1.243.515.96 0 1.71-.75 1.71-1.687 0-.492-.164-.914-.468-1.219l-7.946-7.922c-.445-.445-.867-.68-1.382-.68Z" fill="currentColor"/>
</svg>