<svg xmlns="http://www.w3.org/2000/svg" viewBox="0 0 256 256">
	<path d="M256,256c-30.33,0-60.67,0-91,0c-1.33-4.33-2.67-8.67-4-13c14.49,0.67,30.01-1.01,35-10c1.6-1.98,1.3-1.39,2-5c-13.42,0.94-28.59,3.53-43,1c-17.93-3.15-39.99-10.43-62-7c-14.43,2.25-38.45,13.6-51,9c-8.86-4.15-17.5-15.23-23-23c0.33-0.33,0.67-0.67,1-1c6.83,2.06,12.93-0.06,18-2c3.22-6.06,6.57-18.24,1-25c-0.33,0-0.67,0-1,0c-1.11,9.06-4.66,15.09-12,18c-4.93,1.38-9.32,0.21-14-1c-3.17-4.29-13.5-13.83-8-20c20.66-10.33,41.34-20.67,62-31c13-15,26-30,39-45c5.36-4.14,31.52-20.79,40-10c8.01,22.84,9.42,45.57,42,39c0-0.33,0-0.67,0-1c-0.33-0.67-0.67-1.33-1-2c-15.02-2.76-28.78-18.73-25-37c13.12-6.23,24.29-15.16,24-35c-4.01-7.85-10.6-17.15-24-15c-15,6.67-30,13.33-45,20c-25.33,5.11-57.44-25.89-36-45c0.33,0,0.67,0,1,0c0.19,7.51,2.18,10.5,5,15c7.32,2.16,17.8,6.42,28,3c17.66-9.67,35.34-19.33,53-29c36.8-10.37,81.06,18.92,74,59c-3.73,21.18-15.02,33.13-16,56c0.33,0,0.67,0,1,0c0.67-0.33,1.33-0.67,2-1c2.47-8.13,8.13-16.1,15-20c4.33,2,8.67,4,13,6C256,154.66,256,205.34,256,256z M45,32c10.23,15.22-2.57,37.2,17,47c12.39,6.21,27.3-4.52,40,0c1.67,1,3.33,2,5,3c0,0.33,0,0.67,0,1c-8.17,7.77-21.42,24.17-33,27C30.72,120.58,27.59,55.19,45,32z M114,126c-9.06,6.41-18.14,14.79-10,27c0.67,0,1.33,0,2,0c2.33,0,4.67,0,7,0c6.41-4.36,10.68-9.4,11-20c-1.89-3.34-2.39-4.26-6-6C116.67,126.67,115.33,126.33,114,126z"/>
</svg>