<svg xmlns="http://www.w3.org/2000/svg" viewBox="0 0 16 16">
    <path d="M5,4C4.7,4,4.5,4.2,4.5,4.5S4.7,5,5,5h6c0.3,0,0.5-0.2,0.5-0.5S11.3,4,11,4H5z M4.5,6.5C4.5,6.2,4.7,6,5,6h6
	c0.3,0,0.5,0.2,0.5,0.5S11.3,7,11,7H5C4.7,7,4.5,6.8,4.5,6.5z M5,8C4.7,8,4.5,8.2,4.5,8.5S4.7,9,5,9h6c0.3,0,0.5-0.2,0.5-0.5
	S11.3,8,11,8H5z M5,10c-0.3,0-0.5,0.2-0.5,0.5S4.7,11,5,11h3c0.3,0,0.5-0.2,0.5-0.5S8.3,10,8,10H5z"/>
    <path d="M2.5,3.1c0-0.9,0.8-1.6,1.8-1.6h7.3c1,0,1.8,0.7,1.8,1.6v9.8c0,0.9-0.8,1.6-1.8,1.6H4.3c-1,0-1.8-0.7-1.8-1.6V3.1z
	 M11.7,2.3H4.3c-0.5,0-0.9,0.4-0.9,0.8v9.8c0,0.4,0.4,0.8,0.9,0.8h7.3c0.5,0,0.9-0.4,0.9-0.8V3.1C12.6,2.7,12.2,2.3,11.7,2.3z"/>
</svg>
