<svg viewBox="0 0 1000 1000" width="100%" height="100%" pointer-events="none"
    xmlns="http://www.w3.org/2000/svg">
    <path d="M896 62c57 0 104 42 104 94v688c0 52-47 94-104 94H104C47 938 0 896 0 844V156c0-52 47-94 104-94h792zm0 42H104c-35 0-62 24-62 52v688c0 28 27 52 62 52h792c35 0 62-24 62-52V156c0-28-27-52-62-52zM668 458c82 0 148 66 148 148 0 34-11 64-30 89l71 73c8 8 8 21 0 29s-19 8-27 3l-3-3-71-72c-25 17-55 28-88 28-81 0-147-66-147-147s66-148 147-148zM500 729c12 0 21 9 21 21 0 10-8 19-17 20l-4 1H167c-12 0-21-9-21-21 0-10 7-19 17-20l4-1h333zm168-229c-58 0-105 47-105 106s47 106 105 106 106-48 106-106-47-106-106-106zM417 604c11 0 21 9 21 21 0 10-8 19-18 20l-3 1H167c-12 0-21-9-21-21 0-10 7-19 17-20l4-1h250zm41-125c12 0 21 9 21 21 0 10-7 19-17 20l-4 1H167c-12 0-21-9-21-21 0-10 7-19 17-20l4-1h291zm-83-125c12 0 21 9 21 21 0 10-8 19-17 20l-4 1H167c-12 0-21-9-21-21 0-10 7-19 17-20l4-1h208zm250 0c12 0 21 9 21 21 0 10-8 19-17 20l-4 1H458c-11 0-20-9-20-21 0-10 7-19 17-20l3-1h167zm208 0c12 0 21 9 21 21 0 10-7 19-17 20l-4 1H708c-11 0-20-9-20-21 0-10 7-19 17-20l3-1h125zM417 229c11 0 21 9 21 21 0 10-8 19-18 20l-3 1H167c-12 0-21-9-21-21 0-10 7-19 17-20l4-1h250zm416 0c12 0 21 9 21 21 0 10-7 19-17 20l-4 1H500c-12 0-21-9-21-21 0-10 8-19 17-20l4-1h333z" fill="gray"/>
</svg>