<svg xmlns="http://www.w3.org/2000/svg" xmlns:xlink="http://www.w3.org/1999/xlink" width="350" height="96"
    viewBox="0 0 350 96">
    <g data-name="icon" fill="#ea2d1f" data="id:329569" transform="translate(5,5) scale(2.714611927869115)">
        <g>
            <path
                d="M16,0L16,0L16,0L16,0L16,0L0.665,4.35C0.665,4.35,1.58,19.375,16,32v0l0,0l0,0v0C30.42,19.375,31.335,4.35,31.335,4.35   L16,0z M16,16.723l-4.329,3.421l1.654-5.536l-4.329-3.421h5.351L16,5.651l1.654,5.536h5.351l-4.329,3.421l1.654,5.536L16,16.723z">
            </path>
        </g>
        <rect x="-2.334999978542328" y="-3" width="36.66999816894531" height="38" fill="transparent"
            pointer-events="all"></rect>
    </g>
    <g data-name="business_name" fill="#e72600" data="id:1" transform="translate(110,-15) scale(1.971250032877133)">
        <path
            d="M0.84,20l14.4,0l0,0.88l-4.24,0l0,26.24l1.44,0q3.4,0,5.42-2.08t4.1-6.4l0.84,0l-0.76,9.36l-21.2,0l0-0.88l2.36,0l0-26.24l-2.36,0l0-0.88z M43.88,35.64l0-2.96q0-7.32-0.72-9.24q-0.8-2.2-2.28-2.72q-0.84-0.32-2.04-0.32t-2.06,0.32t-1.42,1.12t-0.9,1.68t-0.54,2.48q-0.24,2.32-0.24,6.84l0,2.88q0,4.88,0.38,6.94t0.94,2.94q1.24,1.96,3.84,1.96q3.16,0,4.1-2.66t0.94-9.26z M28.78,44.78q-3.3-3.62-3.3-10.48t3.54-10.8t10.02-3.94t9.78,3.74t3.3,10.62t-3.34,10.68t-10.02,3.8t-9.98-3.62z M69.36,47.6q1.96,0,2.5-0.72t0.54-2.44l0-7.76l-2.56,0l0-0.88l11.52,0l0,0.88l-1.56,0l0,11.28l-0.6,0q-0.72-1-2.04-1q-0.56,0-3.34,0.72t-4.74,0.72q-6.52,0-10.1-3.52t-3.58-10.58t3.74-10.9t10.06-3.84q2.44,0,4.9,0.62t2.86,0.62t0.6-0.18t0.44-0.62l0.44,0l0.32,8.68l-0.72,0q-1.96-3.88-3.94-6.1t-4.42-2.22q-6.12,0-6.12,11.96l0,3.16q0,6,1.5,9.06t4.3,3.06z M102.72,35.64l0-2.96q0-7.32-0.72-9.24q-0.8-2.2-2.28-2.72q-0.84-0.32-2.04-0.32t-2.06,0.32t-1.42,1.12t-0.9,1.68t-0.54,2.48q-0.24,2.32-0.24,6.84l0,2.88q0,4.88,0.38,6.94t0.94,2.94q1.24,1.96,3.84,1.96q3.16,0,4.1-2.66t0.94-9.26z M87.62,44.78q-3.3-3.62-3.3-10.48t3.54-10.8t10.02-3.94t9.78,3.74t3.3,10.62t-3.34,10.68t-10.02,3.8t-9.98-3.62z">
        </path>
    </g>
</svg>